/* XPM */
static char * ecb_parent_protected_xpm[] = {
"16 14 115 2",
"  	c None",
". 	c #BCBCBC",
"+ 	c #BABABA",
"@ 	c #C0C0C0",
"# 	c #555555",
"$ 	c #7E7E7E",
"% 	c #7B7B7B",
"& 	c #4F4F4F",
"* 	c #9E9E9E",
"= 	c #040404",
"- 	c #DEDEDE",
"; 	c #3F3F3F",
"> 	c #5C5C5C",
", 	c #818181",
"' 	c #7F7E7E",
") 	c #53403C",
"! 	c #27211E",
"~ 	c #CFCFCF",
"{ 	c #FFFFFF",
"] 	c #FEE99F",
"^ 	c #FEF0B7",
"/ 	c #FEDF8B",
"( 	c #8E2E00",
"_ 	c #757575",
": 	c #424242",
"< 	c #414141",
"[ 	c #734122",
"} 	c #AC551F",
"| 	c #DE7529",
"1 	c #CC7226",
"2 	c #99897A",
"3 	c #FDC760",
"4 	c #FCBD4F",
"5 	c #C04C00",
"6 	c #373737",
"7 	c #343434",
"8 	c #4D3522",
"9 	c #EC862D",
"0 	c #F69131",
"a 	c #F48F30",
"b 	c #E8822B",
"c 	c #926D52",
"d 	c #FDD378",
"e 	c #B84900",
"f 	c #292929",
"g 	c #242424",
"h 	c #623517",
"i 	c #D16B24",
"j 	c #D77126",
"k 	c #D67025",
"l 	c #CC6622",
"m 	c #876553",
"n 	c #963400",
"o 	c #626262",
"p 	c #121212",
"q 	c #3E1E0F",
"r 	c #B54F1B",
"s 	c #BA541C",
"t 	c #B9531C",
"u 	c #A44114",
"v 	c #93817C",
"w 	c #A5A5C6",
"x 	c #444444",
"y 	c #0D0D10",
"z 	c #4B1908",
"A 	c #9D3712",
"B 	c #993311",
"C 	c #692926",
"D 	c #C3CCE5",
"E 	c #3C5CBA",
"F 	c #4A3C78",
"G 	c #7A3F4F",
"H 	c #7A5A7E",
"I 	c #4264CA",
"J 	c #376CB1",
"K 	c #E8EDF8",
"L 	c #4765DF",
"M 	c #6782FD",
"N 	c #527AE6",
"O 	c #81B3F2",
"P 	c #9DD0FF",
"Q 	c #537CE2",
"R 	c #6078FC",
"S 	c #4180A5",
"T 	c #8BA2DC",
"U 	c #425BEC",
"V 	c #5C72FD",
"W 	c #6A85FD",
"X 	c #4D77DD",
"Y 	c #A8DAFB",
"Z 	c #466AE3",
"` 	c #576BFB",
" .	c #3068AF",
"..	c #748FD5",
"+.	c #2B4ED6",
"@.	c #465EF0",
"#.	c #586CFC",
"$.	c #576EF8",
"%.	c #4070CF",
"&.	c #475FEE",
"*.	c #3251D5",
"=.	c #385B7C",
"-.	c #D5DBEA",
";.	c #556DAD",
">.	c #3D59AB",
",.	c #4059AD",
"'.	c #435BAE",
").	c #465D9F",
"!.	c #5F709C",
"~.	c #959AA7",
"{.	c #DFDFDF",
"].	c #F1F1F1",
"^.	c #F0F0F0",
"/.	c #F4F4F4",
"(.	c #FAFAFA",
"      . +                       ",
"  @ # $ % & *     = = = = =     ",
"- ; > , ' ) ! ~ = { ] ^ ] / (   ",
"_ : < [ } | 1 2 = ] 3 = 3 4 5   ",
"6 7 8 9 0 a b c = / 4 3 d 3 e   ",
"f g h i j k l m   = = 4 n e     ",
"o p q r s t u v     = 3 e       ",
"w x y z A B C       = 4 5       ",
"  D E F G H I J     = 3 d 5     ",
"K L M N O P Q R S   = d 5       ",
"T U V W X Y Z `  .    n         ",
"..+.@.#.$.%.&.*.=.              ",
"-.;.>.,.'.).!.~.{.              ",
"    ].^.^./.(.                  "};
