/* XPM */
static char * ecb_class_protected_xpm[] = {
"16 14 47 1",
" 	c None",
".	c #040404",
"+	c #FFFFFF",
"@	c #FEE99F",
"#	c #FEF0B7",
"$	c #FEDF8B",
"%	c #8E2E00",
"&	c #F2F1C5",
"*	c #FDC760",
"=	c #FCBD4F",
"-	c #C04C00",
";	c #E0B84B",
">	c #DCB857",
",	c #000000",
"'	c #FDD378",
")	c #B84900",
"!	c #F2DDA4",
"~	c #E0B74A",
"{	c #D7B34F",
"]	c #ECC864",
"^	c #F2CB61",
"/	c #963400",
"(	c #E8C25C",
"_	c #4F2721",
":	c #4B5F87",
"<	c #4F648E",
"[	c #E5A684",
"}	c #D48E67",
"|	c #D67A44",
"1	c #C2CBDF",
"2	c #8AAAEA",
"3	c #83A1DE",
"4	c #87A7E8",
"5	c #E2B7A1",
"6	c #D08254",
"7	c #B2C5EB",
"8	c #6B8CD1",
"9	c #7798DF",
"0	c #7190D4",
"a	c #D67942",
"b	c #DEAC90",
"c	c #A9BBDF",
"d	c #83A3E6",
"e	c #809EDC",
"f	c #EEC1AA",
"g	c #DF966D",
"h	c #532923",
"         .....  ",
"   .    .+@#@$% ",
"  .&.   .@*.*=- ",
" .&;>.  ,$=*'*) ",
".!~{]^.  ..=/)  ",
" .^(^.    .*)   ",
"  .^.  .._.=-   ",
"..:.:<.[}|.*'-  ",
".1234.[5|6.'-   ",
".7890.}a}[b/    ",
".cde4.a6[bf_    ",
".7e4e<.gbf_     ",
".:<:<: _h_      ",
"                "};
