/* XPM */
static char * ecb_abstract_function_protected_xpm[] = {
"16 14 25 1",
" 	c None",
".	c #444444",
"+	c #FFFFFF",
"@	c #EDEDED",
"#	c #F2F2F2",
"$	c #E7E7E7",
"%	c #747474",
"&	c #D8D8D8",
"*	c #D2D2D2",
"=	c #8C8C8C",
"-	c #E0E0E0",
";	c #898989",
">	c #C8C8C8",
",	c #D1D1D1",
"'	c #BDBDBD",
")	c #A6A6A6",
"!	c #676767",
"~	c #787878",
"{	c #A4A4A4",
"]	c #B5B5B5",
"^	c #B6B6B6",
"/	c #656565",
"(	c #A5A5A5",
"_	c #B3B3B3",
":	c #C9C9C9",
"                ",
"         .....  ",
"        .+@#@$% ",
"        .@&.&*= ",
"  ....  .$*&-&; ",
" .>,')!  ..*~;  ",
".>,{)]^!  .&;   ",
".,{)]^>/  .*=   ",
".'(_^>:!  .&-=  ",
".(]^>:&/  .-=   ",
" .^>:&/    ~    ",
"  !/!/          ",
"                ",
"                "};
