/* XPM */
static char * ecb_abstract_class_private_xpm[] = {
"16 14 30 1",
" 	c None",
".	c #696969",
"+	c #434343",
"@	c #C5C5C5",
"#	c #F1F1F1",
"$	c #CACACA",
"%	c #E6E6E6",
"&	c #C9C9C9",
"*	c #D5D5D5",
"=	c #D8D8D8",
"-	c #8C8C8C",
";	c #D1D1D1",
">	c #656565",
",	c #868686",
"'	c #898989",
")	c #C8C8C8",
"!	c #B6B6B6",
"~	c #ABABAB",
"{	c #D7D7D7",
"]	c #BDBDBD",
"^	c #BBBBBB",
"/	c #AFAFAF",
"(	c #D2D2D2",
"_	c #A7A7A7",
":	c #B0B0B0",
"<	c #AAAAAA",
"[	c #676767",
"}	c #CBCBCB",
"|	c #B8B8B8",
"1	c #B4B4B4",
"           ...  ",
"   +      .@ @. ",
"  +#+     .   . ",
" +#$$+    ..... ",
"+%&@*=+   ..-.. ",
" +=;=+    .- -. ",
"  +=+  ++>..-.. ",
"++,+,'+)!~..... ",
"+{]!^+);~/]>    ",
"+(_:<+!<!)&[    ",
"+}|1^+</)&=>    ",
"+(1^1'+]&=>     ",
"+,',', >[>      ",
"                "};
