/* XPM */
static char * ecb_variable_unknown_static_xpm[] = {
"12 14 51 1",
" 	c None",
".	c #474747",
"+	c #434343",
"@	c #626C7D",
"#	c #6E7683",
"$	c #E7EBD8",
"%	c #8296BD",
"&	c #040404",
"*	c #2D3544",
"=	c #CBCEBD",
"-	c #5C729A",
";	c #C2CBDF",
">	c #8AAAEA",
",	c #57688C",
"'	c #E1E8DD",
")	c #5C7099",
"!	c #6F8FD3",
"~	c #B2C5EB",
"{	c #6080C9",
"]	c #50648B",
"^	c #D3DAD4",
"/	c #6176A1",
"(	c #7190D4",
"_	c #4F648E",
":	c #A5A5C6",
"<	c #A9BBDF",
"[	c #6789D6",
"}	c #4D6085",
"|	c #DFE5E2",
"1	c #7B9CE2",
"2	c #4B5F87",
"3	c #6685CD",
"4	c #53668D",
"5	c #D4DADA",
"6	c #7998D8",
"7	c #6E8FD9",
"8	c #506287",
"9	c #DFE7E9",
"0	c #83A4E6",
"a	c #6D8CD1",
"b	c #56698F",
"c	c #D5DBE1",
"d	c #809EDC",
"e	c #83A1DE",
"f	c #44536D",
"g	c #DCE2E9",
"h	c #838B9A",
"i	c #DEE3E9",
"j	c #92A8D0",
"k	c #727E95",
"l	c #8690A1",
"            ",
"            ",
"    .+@     ",
"    #$%     ",
" &&&*=-&&   ",
" &;>,')>!   ",
" &~{]^/(_   ",
":&<[}|)12   ",
" &~345/6_   ",
" &<789)02   ",
" &~abc/d_   ",
" &e_fg)_2   ",
"    hij     ",
"    #kl     "};
