/* XPM */
static char * ecb_function_public_xpm[] = {
"16 14 17 1",
" 	c None",
".	c #005D00",
"+	c #3CBA00",
"@	c #040404",
"#	c #E5A684",
"$	c #E2B7A1",
"%	c #DF966D",
"&	c #CB7441",
"*	c #532923",
"=	c #CA713E",
"-	c #DB8958",
";	c #D48E67",
">	c #4F2721",
",	c #CB733F",
"'	c #DB8757",
")	c #DEAC90",
"!	c #EEC1AA",
"                ",
"        ...     ",
"       .+ +.    ",
"       .   .    ",
"  @@@@   .....  ",
" @#$%&*  ..+..  ",
"@#$=&-;* .+ +.  ",
"@$=&-;#> ..+..  ",
"@%,';#)* .....  ",
"@,-;#)!>        ",
" @;#)!>         ",
"  *>*>          ",
"                ",
"                "};
