/* XPM */
static char * ecb_parent_bucket_xpm[] = {
"16 14 186 2",
"  	c None",
". 	c #BCBCBC",
"+ 	c #BABABA",
"@ 	c #EBE1CE",
"# 	c #D1B37B",
"$ 	c #D5B67F",
"% 	c #CCAB6E",
"& 	c #E0D6C3",
"* 	c #C0C0C0",
"= 	c #555555",
"- 	c #7E7E7E",
"; 	c #7B7B7B",
"> 	c #4F4F4F",
", 	c #9E9E9E",
"' 	c #F7F4EC",
") 	c #C29542",
"! 	c #DEB66E",
"~ 	c #E7C893",
"{ 	c #DCBA7D",
"] 	c #B0842F",
"^ 	c #DCD8D2",
"/ 	c #DEDEDE",
"( 	c #3F3F3F",
"_ 	c #5C5C5C",
": 	c #818181",
"< 	c #7F7E7E",
"[ 	c #53403C",
"} 	c #27211E",
"| 	c #CFCFCF",
"1 	c #E1CCA4",
"2 	c #C38D2A",
"3 	c #CB973C",
"4 	c #D79D44",
"5 	c #DC9839",
"6 	c #C28829",
"7 	c #A99875",
"8 	c #757575",
"9 	c #424242",
"0 	c #414141",
"a 	c #734122",
"b 	c #AC551F",
"c 	c #DE7529",
"d 	c #CC7226",
"e 	c #99897A",
"f 	c #E1BD84",
"g 	c #FEB953",
"h 	c #FABB55",
"i 	c #FFBE58",
"j 	c #FFB953",
"k 	c #FDB14B",
"l 	c #A48B61",
"m 	c #373737",
"n 	c #343434",
"o 	c #4D3522",
"p 	c #EC862D",
"q 	c #F69131",
"r 	c #F48F30",
"s 	c #E8822B",
"t 	c #926D52",
"u 	c #DCB57B",
"v 	c #FFAE48",
"w 	c #FFB24C",
"x 	c #FDA640",
"y 	c #9C8A6A",
"z 	c #292929",
"A 	c #242424",
"B 	c #623517",
"C 	c #D16B24",
"D 	c #D77126",
"E 	c #D67025",
"F 	c #CC6622",
"G 	c #876553",
"H 	c #D7BE95",
"I 	c #FEA13B",
"J 	c #FFA43E",
"K 	c #FFA13B",
"L 	c #DB8B2B",
"M 	c #ABA8A2",
"N 	c #626262",
"O 	c #121212",
"P 	c #3E1E0F",
"Q 	c #B54F1B",
"R 	c #BA541C",
"S 	c #B9531C",
"T 	c #A44114",
"U 	c #93817C",
"V 	c #EBEAE1",
"W 	c #CE8827",
"X 	c #F4942E",
"Y 	c #E78D28",
"Z 	c #917244",
"` 	c #E5E5E5",
" .	c #444444",
"..	c #0D0D10",
"+.	c #4B1908",
"@.	c #9D3712",
"#.	c #993311",
"$.	c #692926",
"%.	c #86A18A",
"&.	c #66B366",
"*.	c #699957",
"=.	c #BF914A",
"-.	c #C08A38",
";.	c #758234",
">.	c #6A9569",
",.	c #C3CCE5",
"'.	c #3C5CBA",
").	c #4A3C78",
"!.	c #7A3F4F",
"~.	c #7A5A7E",
"{.	c #4264CA",
"].	c #376CB1",
"^.	c #6CC47F",
"/.	c #7CBD80",
"(.	c #F0F8FF",
"_.	c #C0DBD2",
":.	c #5DB760",
"<.	c #57BD57",
"[.	c #7CA97C",
"}.	c #E8EDF8",
"|.	c #4765DF",
"1.	c #6782FD",
"2.	c #527AE6",
"3.	c #81B3F2",
"4.	c #9DD0FF",
"5.	c #537CE2",
"6.	c #6078FC",
"7.	c #4180A5",
"8.	c #5CB25E",
"9.	c #E9FBF8",
"0.	c #5FAF60",
"a.	c #6FD06F",
"b.	c #54C354",
"c.	c #2B972B",
"d.	c #D2D5D2",
"e.	c #8BA2DC",
"f.	c #425BEC",
"g.	c #5C72FD",
"h.	c #6A85FD",
"i.	c #4D77DD",
"j.	c #A8DAFB",
"k.	c #466AE3",
"l.	c #576BFB",
"m.	c #3068AF",
"n.	c #45B145",
"o.	c #5FAA6B",
"p.	c #59C359",
"q.	c #53C353",
"r.	c #3DB83D",
"s.	c #1D9D1D",
"t.	c #9AA99A",
"u.	c #748FD5",
"v.	c #2B4ED6",
"w.	c #465EF0",
"x.	c #586CFC",
"y.	c #576EF8",
"z.	c #4070CF",
"A.	c #475FEE",
"B.	c #3251D5",
"C.	c #385B7C",
"D.	c #4C8B4C",
"E.	c #2E7B2E",
"F.	c #378D37",
"G.	c #328B32",
"H.	c #2A832A",
"I.	c #397639",
"J.	c #C5C6C5",
"K.	c #D5DBEA",
"L.	c #556DAD",
"M.	c #3D59AB",
"N.	c #4059AD",
"O.	c #435BAE",
"P.	c #465D9F",
"Q.	c #5F709C",
"R.	c #959AA7",
"S.	c #DFDFDF",
"T.	c #F4F4F4",
"U.	c #E8E8E8",
"V.	c #DCDCDC",
"W.	c #DBDBDB",
"X.	c #ECECEC",
"Y.	c #F9F9F9",
"Z.	c #F1F1F1",
"`.	c #F0F0F0",
" +	c #FAFAFA",
".+	c #FFFFFF",
"      . +         @ # $ % &     ",
"  * = - ; > ,   ' ) ! ~ { ] ^   ",
"/ ( _ : < [ } | 1 2 3 4 5 6 7   ",
"8 9 0 a b c d e f g h i j k l   ",
"m n o p q r s t u v w w v x y   ",
"z A B C D E F G H I J J K L M   ",
"N O P Q R S T U V W X X Y Z     ",
"`  ...+.@.#.$.%.&.*.=.-.;.>.    ",
"  ,.'.).!.~.{.].^./.(._.:.<.[.  ",
"}.|.1.2.3.4.5.6.7.8.9.0.a.b.c.d.",
"e.f.g.h.i.j.k.l.m.n.o.p.q.r.s.t.",
"u.v.w.x.y.z.A.B.C.D.E.F.G.H.I.J.",
"K.L.M.N.O.P.Q.R.S.T.U.V.W.V.X.  ",
"  Y.Z.`.`.T. +.+                "};
