/* XPM */
static char * ecb_abstract_constructor_protected_xpm[] = {
"16 14 23 1",
" 	c None",
".	c #444444",
"+	c #FFFFFF",
"@	c #EDEDED",
"#	c #F2F2F2",
"$	c #E7E7E7",
"%	c #747474",
"&	c #D8D8D8",
"*	c #D2D2D2",
"=	c #8C8C8C",
"-	c #EFEFEF",
";	c #787878",
">	c #404040",
",	c #E0E0E0",
"'	c #898989",
")	c #C2C2C2",
"!	c #C9C9C9",
"~	c #CECECE",
"{	c #C6C6C6",
"]	c #D1D1D1",
"^	c #CDCDCD",
"/	c #CACACA",
"(	c #D5D5D5",
"                ",
"         .....  ",
"        .+@#@$% ",
"    .   .@&.&*= ",
"   .-;  >$*&,&' ",
"  .-)!;  ..*;'  ",
" .-)~{];  .&'   ",
".-)^/]~,; .*=   ",
" .,/(~,;  .&,=  ",
"  .,],;   .,=   ",
"   .,;     ;    ",
"    ;           ",
"                ",
"                "};
