/* XPM */
static char * ecb_variable_protected_xpm[] = {
"16 14 45 1",
" 	c None",
".	c #040404",
"+	c #FFFFFF",
"@	c #FEE99F",
"#	c #FEF0B7",
"$	c #FEDF8B",
"%	c #8E2E00",
"&	c #FDC760",
"*	c #FCBD4F",
"=	c #C04C00",
"-	c #FDD378",
";	c #B84900",
">	c #C2CBDF",
",	c #8AAAEA",
"'	c #83A1DE",
")	c #6F8FD3",
"!	c #963400",
"~	c #B2C5EB",
"{	c #6080C9",
"]	c #688AD5",
"^	c #6687CD",
"/	c #7193DC",
"(	c #7190D4",
"_	c #4F648E",
":	c #A9BBDF",
"<	c #6789D6",
"[	c #6686CD",
"}	c #7091DA",
"|	c #7B9CE2",
"1	c #4B5F87",
"2	c #6685CD",
"3	c #6F91DA",
"4	c #6F8ED2",
"5	c #7A9CE1",
"6	c #7998D8",
"7	c #6E8FD9",
"8	c #6D8DD2",
"9	c #799AE0",
"0	c #7897D7",
"a	c #83A4E6",
"b	c #6D8CD1",
"c	c #7899DF",
"d	c #7896D7",
"e	c #83A3E6",
"f	c #809EDC",
"                ",
"         .....  ",
"        .+@#@$% ",
"        .@&.&*= ",
".........$*&-&; ",
".>,',',) ..*!;  ",
".~{]^/(_  .&;   ",
".:<[})|1  .*=   ",
".~23456_  .&-=  ",
".:7890a1  .-=   ",
".~bcdef_   !    ",
".'_1_1_1        ",
"                ",
"                "};
