/* XPM */
static char * ecb_abstract_function_public_static_xpm[] = {
"16 14 42 1",
" 	c None",
".	c #686868",
"+	c #757575",
"@	c #727272",
"#	c #8F8F8F",
"$	c #9F9F9F",
"%	c #EEEEEE",
"&	c #AAAAAA",
"*	c #656565",
"=	c #4C4C4C",
"-	c #DCDCDC",
";	c #989898",
">	c #444444",
",	c #C8C8C8",
"'	c #8A8A8A",
")	c #ECECEC",
"!	c #A1A1A1",
"~	c #676767",
"{	c #DDDDDD",
"]	c #A8A8A8",
"^	c #E2E2E2",
"/	c #A7A7A7",
"(	c #B6B6B6",
"_	c #D1D1D1",
":	c #A4A4A4",
"<	c #A3A3A3",
"[	c #BDBDBD",
"}	c #A5A5A5",
"|	c #8E8E8E",
"1	c #E3E3E3",
"2	c #ACACAC",
"3	c #C9C9C9",
"4	c #B5B5B5",
"5	c #D8D8D8",
"6	c #E6E6E6",
"7	c #AFAFAF",
"8	c #666666",
"9	c #939393",
"0	c #9B9B9B",
"a	c #EAEAEA",
"b	c #B7B7B7",
"c	c #8C8C8C",
"                ",
"        ...     ",
"   +@# .$ $.    ",
"   @%& .   .    ",
"  *=-;   .....  ",
" >,')!~  ..$..  ",
">,{]^/(~ .$ $.  ",
">_:<):,* ..$..  ",
">[}|123~ .....  ",
">}4'%]5*        ",
" >(|67*         ",
"  ~869          ",
"   0ab          ",
"   c#<          "};
