/* XPM */
static char * ecb_abstract_variable_private_static_xpm[] = {
"16 14 45 1",
" 	c None",
".	c #696969",
"+	c #757575",
"@	c #727272",
"#	c #8F8F8F",
"$	c #C5C5C5",
"%	c #989898",
"&	c #EDEDED",
"*	c #AFAFAF",
"=	c #444444",
"-	c #676767",
";	c #D8D8D8",
">	c #939393",
",	c #D7D7D7",
"'	c #BDBDBD",
")	c #8C8C8C",
"!	c #EBEBEB",
"~	c #929292",
"{	c #A9A9A9",
"]	c #D2D2D2",
"^	c #9E9E9E",
"/	c #898989",
"(	c #E1E1E1",
"_	c #979797",
":	c #AAAAAA",
"<	c #CBCBCB",
"[	c #A5A5A5",
"}	c #868686",
"|	c #E9E9E9",
"1	c #B3B3B3",
"2	c #A2A2A2",
"3	c #8B8B8B",
"4	c #E2E2E2",
"5	c #B0B0B0",
"6	c #888888",
"7	c #B9B9B9",
"8	c #A7A7A7",
"9	c #8D8D8D",
"0	c #E3E3E3",
"a	c #B4B4B4",
"b	c #B6B6B6",
"c	c #7D7D7D",
"d	c #E8E8E8",
"e	c #BCBCBC",
"f	c #9D9D9D",
"                ",
"          ...   ",
"   +@#   .$ $.  ",
"   %&*   .   .  ",
"===-;>== .....  ",
"=,')!~'{ ..)..  ",
"=]^/(_:/ .) ).  ",
"=<[}|~1} ..)..  ",
"=]234_5/ .....  ",
"=<:6!~7}        ",
"=]890_a/        ",
"=b/cd~/}        ",
"   8|e          ",
"   %f:          "};
