/* XPM */
static char * ecb_abstract_variable_protected_static_xpm[] = {
"16 14 49 1",
" 	c None",
".	c #444444",
"+	c #757575",
"@	c #727272",
"#	c #8F8F8F",
"$	c #FFFFFF",
"%	c #EDEDED",
"&	c #F2F2F2",
"*	c #E7E7E7",
"=	c #747474",
"-	c #989898",
";	c #AFAFAF",
">	c #D8D8D8",
",	c #D2D2D2",
"'	c #8C8C8C",
")	c #676767",
"!	c #939393",
"~	c #E0E0E0",
"{	c #898989",
"]	c #D7D7D7",
"^	c #BDBDBD",
"/	c #EBEBEB",
"(	c #929292",
"_	c #A9A9A9",
":	c #787878",
"<	c #9E9E9E",
"[	c #E1E1E1",
"}	c #979797",
"|	c #AAAAAA",
"1	c #CBCBCB",
"2	c #A5A5A5",
"3	c #868686",
"4	c #E9E9E9",
"5	c #B3B3B3",
"6	c #A2A2A2",
"7	c #8B8B8B",
"8	c #E2E2E2",
"9	c #B0B0B0",
"0	c #888888",
"a	c #B9B9B9",
"b	c #A7A7A7",
"c	c #8D8D8D",
"d	c #E3E3E3",
"e	c #B4B4B4",
"f	c #B6B6B6",
"g	c #7D7D7D",
"h	c #E8E8E8",
"i	c #BCBCBC",
"j	c #9D9D9D",
"                ",
"         .....  ",
"   +@#  .$%&%*= ",
"   -%;  .%>.>,' ",
"...)>!...*,>~>{ ",
".]^'/(^_ ..,:{  ",
".,<{[}|{  .>{   ",
".1234(53  .,'   ",
".,678}9{  .>~'  ",
".1|0/(a3  .~'   ",
".,bcd}e{   :    ",
".f{gh({3        ",
"   b4i          ",
"   -j|          "};
