/* XPM */
static char * ecb_variable_bucket_xpm[] = {
"16 14 114 2",
"  	c None",
". 	c #040404",
"+ 	c #C2CBDF",
"@ 	c #8AAAEA",
"# 	c #83A1DE",
"$ 	c #6F8FD3",
"% 	c #B2C5EB",
"& 	c #5B79BF",
"* 	c #688AD5",
"= 	c #6180C3",
"- 	c #7193DC",
"; 	c #6B89C9",
"> 	c #4F648E",
", 	c #848484",
"' 	c #8B8B8B",
") 	c #616161",
"! 	c #3B3B3B",
"~ 	c #A0B1D4",
"{ 	c #6789D6",
"] 	c #617FC3",
"^ 	c #7091DA",
"/ 	c #6988C8",
"( 	c #7B9CE2",
"_ 	c #475A80",
": 	c #D1D1D1",
"< 	c #C6C6C6",
"[ 	c #545454",
"} 	c #6B6A6A",
"| 	c #617EC3",
"1 	c #6F91DA",
"2 	c #6987C7",
"3 	c #7A9CE1",
"4 	c #7390CD",
"5 	c #717070",
"6 	c #5E5E5E",
"7 	c #5B5B5B",
"8 	c #626262",
"9 	c #444444",
"0 	c #696D76",
"a 	c #5F687B",
"b 	c #5A6273",
"c 	c #626B7C",
"d 	c #5D6574",
"e 	c #656D7E",
"f 	c #535761",
"g 	c #4C4C4C",
"h 	c #6F6F6F",
"i 	c #BCBCBC",
"j 	c #C6C5C6",
"k 	c #737373",
"l 	c #D5DFF3",
"m 	c #A7B7D9",
"n 	c #B6C7EB",
"o 	c #ACBBDB",
"p 	c #BACBEE",
"q 	c #AFBEDC",
"r 	c #9EA9BF",
"s 	c #6B6B6B",
"t 	c #696969",
"u 	c #C5C5C5",
"v 	c #BBBBBB",
"w 	c #787879",
"x 	c #B2C2DF",
"y 	c #A0ABC1",
"z 	c #969FB3",
"A 	c #9FAAC0",
"B 	c #949EB2",
"C 	c #9EA9BE",
"D 	c #939DB1",
"E 	c #717171",
"F 	c #EEEDED",
"G 	c #F9F9F9",
"H 	c #EBEBEA",
"I 	c #F6F7F7",
"J 	c #E9E9E9",
"K 	c #F3F4F3",
"L 	c #E6E6E6",
"M 	c #F1F0F1",
"N 	c #C2C2C2",
"O 	c #B7B8B7",
"P 	c #F5F5F5",
"Q 	c #E7E8E8",
"R 	c #F2F2F2",
"S 	c #E5E5E5",
"T 	c #EFF0F0",
"U 	c #E2E2E2",
"V 	c #ECEDED",
"W 	c #DFDFDF",
"X 	c #B7B7B8",
"Y 	c #C0C1C1",
"Z 	c #D6D6D6",
"` 	c #E0E0E0",
" .	c #D4D4D4",
"..	c #DFDEDE",
"+.	c #D3D3D3",
"@.	c #DDDDDD",
"#.	c #D1D2D1",
"$.	c #DCDCDC",
"%.	c #C7C7C7",
"&.	c #BDBDBD",
"*.	c #484847",
"=.	c #C1C1C0",
"-.	c #F1F1F0",
";.	c #E3E3E3",
">.	c #EBEBEB",
",.	c #DEDEDE",
"'.	c #E8E9E8",
").	c #DCDBDB",
"!.	c #EDEDEE",
"~.	c #EAEBEB",
"{.	c #E9E8E9",
"].	c #DCDCDB",
"^.	c #E7E7E6",
"/.	c #646464",
"      . . . . . . . .           ",
"      . + @ # @ # @ $           ",
"      . % & * = - ; > , ' ) !   ",
"    , . ~ { ] ^ / ( _ : < [ }   ",
"  ) : . % | 1 2 3 4 > < [ < 5   ",
"6 7 8 9 0 a b c d e f g < : }   ",
"h i j k l m n o p q r s : < 5   ",
"t u v w x y z A B C D E < : }   ",
"h v u F G H I J K L M s : < 5   ",
"t N O P Q R S T U V W E < : }   ",
"h X Y Z `  ...+.@.#.$.s %.&.*.  ",
"t =.Z -.;.F ` >.,.'.).E < 8     ",
"h Z R ;.!.` ~.,.{.].^.s 8       ",
"t h t h t h t h t h t /.        "};
