/* XPM */
static char * ecb_function_protected_static_xpm[] = {
"16 14 58 1",
" 	c None",
".	c #040404",
"+	c #474747",
"@	c #434343",
"#	c #626C7D",
"$	c #FFFFFF",
"%	c #FEE99F",
"&	c #FEF0B7",
"*	c #FEDF8B",
"=	c #8E2E00",
"-	c #F6E8C6",
";	c #C27F58",
">	c #FDC760",
",	c #FCBD4F",
"'	c #C04C00",
")	c #4F2721",
"!	c #1B0D0B",
"~	c #E0CFB0",
"{	c #B16238",
"]	c #FDD378",
"^	c #B84900",
"/	c #E5A684",
"(	c #915532",
"_	c #F7E4C2",
":	c #C36D3D",
"<	c #532923",
"[	c #963400",
"}	c #E7CBBC",
"|	c #C07B57",
"1	c #EAD6B7",
"2	c #CE7644",
"3	c #D48E67",
"4	c #E2B7A1",
"5	c #CA713E",
"6	c #B67553",
"7	c #F7E2C6",
"8	c #C37344",
"9	c #DF966D",
"0	c #CB733F",
"a	c #995A35",
"b	c #EAD7C1",
"c	c #D07C4D",
"d	c #DEAC90",
"e	c #DB8958",
"f	c #F8E5D1",
"g	c #C6794E",
"h	c #EEC1AA",
"i	c #EBDACB",
"j	c #D18255",
"k	c #4A2A26",
"l	c #ECDBCF",
"m	c #A85D35",
"n	c #887371",
"o	c #EDE0D8",
"p	c #D58F67",
"q	c #73605E",
"r	c #796563",
"s	c #90807F",
"                ",
"         .....  ",
"   +@#  .$%&%*= ",
"   @-;  .%>.>,' ",
"  )!~{  .*,>]>^ ",
" ./(_:<  ..,[^  ",
"./}|123<  .>^   ",
".45678/)  .,'   ",
".90abcd<  .>]'  ",
".0e(fgh)  .]'   ",
" .3aij)    [    ",
"  <klm          ",
"   nop          ",
"   qrs          "};
