/* XPM */
static char * ecb_constructor_bucket_xpm[] = {
"16 14 93 2",
"  	c None",
". 	c #040404",
"+ 	c #FFE9AD",
"@ 	c #848484",
"# 	c #8B8B8B",
"$ 	c #CAA542",
"% 	c #E0B74A",
"& 	c #666666",
"* 	c #616161",
"= 	c #3B3B3B",
"- 	c #D1D1D1",
"; 	c #E4BD54",
"> 	c #CDAA4C",
", 	c #E8C25C",
"' 	c #C6C6C6",
") 	c #545454",
"! 	c #6B6A6A",
"~ 	c #050505",
"{ 	c #E3BD53",
"] 	c #D3B257",
"^ 	c #FFD666",
"/ 	c #7C7C7C",
"( 	c #717070",
"_ 	c #5E5E5E",
": 	c #5B5B5B",
"< 	c #626262",
"[ 	c #676767",
"} 	c #414141",
"| 	c #857A5D",
"1 	c #756C55",
"2 	c #80765D",
"3 	c #766E57",
"4 	c #7B7B7B",
"5 	c #6F6F6F",
"6 	c #BCBCBC",
"7 	c #C6C5C6",
"8 	c #EFEFEF",
"9 	c #FBFCFB",
"0 	c #727272",
"a 	c #FCE7AC",
"b 	c #E1D1A3",
"c 	c #FBE5AB",
"d 	c #FAFAFA",
"e 	c #6B6B6B",
"f 	c #696969",
"g 	c #C5C5C5",
"h 	c #BBBBBB",
"i 	c #FBFBFC",
"j 	c #EEEDED",
"k 	c #F9F9F9",
"l 	c #717170",
"m 	c #FAFAF9",
"n 	c #E6E6E6",
"o 	c #717171",
"p 	c #EBEBEA",
"q 	c #F6F7F7",
"r 	c #F9FAF9",
"s 	c #F1F0F1",
"t 	c #C2C2C2",
"u 	c #B7B8B7",
"v 	c #F5F5F5",
"w 	c #E7E8E8",
"x 	c #F2F2F2",
"y 	c #E5E5E5",
"z 	c #E2E2E2",
"A 	c #EDEDEE",
"B 	c #DFDFDF",
"C 	c #B7B7B8",
"D 	c #BABBBB",
"E 	c #D9D9D9",
"F 	c #D8D8D8",
"G 	c #D7D7D7",
"H 	c #D7D6D6",
"I 	c #D6D6D6",
"J 	c #D5D5D5",
"K 	c #D4D5D4",
"L 	c #D4D4D4",
"M 	c #C7C7C7",
"N 	c #BDBDBD",
"O 	c #484847",
"P 	c #C1C1C0",
"Q 	c #F1F1F0",
"R 	c #E3E3E3",
"S 	c #E0E0E0",
"T 	c #EBEBEB",
"U 	c #DEDEDE",
"V 	c #E8E9E8",
"W 	c #DCDBDB",
"X 	c #EAEBEB",
"Y 	c #E9E8E9",
"Z 	c #DCDCDB",
"` 	c #E7E7E6",
" .	c #646464",
"              .                 ",
"            . + .               ",
"      @ # . + $ % . & @ # * =   ",
"    @ - . + $ ; > , . - ' ) !   ",
"  * - ~ + $ { ] , ] ^ . / ' (   ",
"_ : < [ } | 1 2 3 | } 4 ' - !   ",
"5 6 7 8 9 0 a b c 5 d e - ' (   ",
"f g h i j k l c 5 m n o ' - !   ",
"5 h g j k p q 5 r n s e - ' (   ",
"f t u v w x y q z A B o ' - !   ",
"5 C D E F G H I J K L e M N O   ",
"f P I Q R j S T U V W o ' <     ",
"5 I x R A S X U Y Z ` e <       ",
"f 5 f 5 f 5 f 5 f 5 f  .        "};
