/* XPM */
static char * ecb_function_bucket_xpm[] = {
"16 14 101 2",
"  	c None",
". 	c #040404",
"+ 	c #E5A684",
"@ 	c #D6AE99",
"# 	c #DF966D",
"$ 	c #C16E3E",
"% 	c #532923",
"& 	c #CA713E",
"* 	c #DB8958",
"= 	c #C98762",
"- 	c #848484",
"; 	c #8B8B8B",
"> 	c #616161",
", 	c #3B3B3B",
"' 	c #4B251F",
") 	c #D1D1D1",
"! 	c #C6C6C6",
"~ 	c #545454",
"{ 	c #6B6A6A",
"] 	c #C16D3C",
"^ 	c #DB8757",
"/ 	c #D3A389",
"( 	c #717070",
"_ 	c #5E5E5E",
": 	c #5B5B5B",
"< 	c #626262",
"[ 	c #444444",
"} 	c #715B4F",
"| 	c #7B665A",
"1 	c #736358",
"2 	c #7E6E65",
"3 	c #766963",
"4 	c #80756F",
"5 	c #544948",
"6 	c #7B7B7B",
"7 	c #6F6F6F",
"8 	c #BCBCBC",
"9 	c #C6C5C6",
"0 	c #EFEFEF",
"a 	c #787978",
"b 	c #DAB8A5",
"c 	c #EFCEBC",
"d 	c #DEC5B8",
"e 	c #F2DACE",
"f 	c #96837F",
"g 	c #FAFAFA",
"h 	c #6B6B6B",
"i 	c #696969",
"j 	c #C5C5C5",
"k 	c #BBBBBB",
"l 	c #FBFBFC",
"m 	c #EEEEED",
"n 	c #A28D89",
"o 	c #988480",
"p 	c #A18B88",
"q 	c #FAFAF9",
"r 	c #E6E6E6",
"s 	c #717171",
"t 	c #EEEDED",
"u 	c #F9F9F9",
"v 	c #E9E9E8",
"w 	c #FBFBFB",
"x 	c #E7E7E7",
"y 	c #F9FAF9",
"z 	c #F1F0F1",
"A 	c #C2C2C2",
"B 	c #B7B8B7",
"C 	c #F5F5F5",
"D 	c #E7E8E8",
"E 	c #F2F2F2",
"F 	c #E5E5E5",
"G 	c #EFF0F0",
"H 	c #E2E2E2",
"I 	c #ECEDED",
"J 	c #DFDFDF",
"K 	c #B7B7B8",
"L 	c #C0C1C1",
"M 	c #D6D6D6",
"N 	c #E0E0E0",
"O 	c #D4D4D4",
"P 	c #DFDEDE",
"Q 	c #D3D3D3",
"R 	c #DDDDDD",
"S 	c #D1D2D1",
"T 	c #DCDCDC",
"U 	c #C7C7C7",
"V 	c #BDBDBD",
"W 	c #484847",
"X 	c #C1C1C0",
"Y 	c #F1F1F0",
"Z 	c #E3E3E3",
"` 	c #EBEBEB",
" .	c #DEDEDE",
"..	c #E8E9E8",
"+.	c #DCDBDB",
"@.	c #EDEDEE",
"#.	c #EAEBEB",
"$.	c #E9E8E9",
"%.	c #DCDCDB",
"&.	c #E7E7E6",
"*.	c #646464",
"          . . . .               ",
"        . + @ # $ %             ",
"      . + @ & $ * = % - ; > ,   ",
"    - . @ & $ * = + ' ) ! ~ {   ",
"  > ) . # ] ^ = + / % ! ~ ! (   ",
"_ : < [ } | 1 2 3 4 5 6 ! ) {   ",
"7 8 9 0 a b c d e f g h ) ! (   ",
"i j k l m n o p f q r s ! ) {   ",
"7 k j t u v w x y r z h ) ! (   ",
"i A B C D E F G H I J s ! ) {   ",
"7 K L M N O P Q R S T h U V W   ",
"i X M Y Z t N `  ...+.s ! <     ",
"7 M E Z @.N #. .$.%.&.h <       ",
"i 7 i 7 i 7 i 7 i 7 i *.        "};
