/* XPM */
static char * ecb_parent_private_xpm[] = {
"16 14 106 2",
"  	c None",
". 	c #BCBCBC",
"+ 	c #BABABA",
"@ 	c #C0C0C0",
"# 	c #555555",
"$ 	c #7E7E7E",
"% 	c #7B7B7B",
"& 	c #4F4F4F",
"* 	c #9E9E9E",
"= 	c #BA0000",
"- 	c #DEDEDE",
"; 	c #3F3F3F",
"> 	c #5C5C5C",
", 	c #818181",
"' 	c #7F7E7E",
") 	c #53403C",
"! 	c #27211E",
"~ 	c #CFCFCF",
"{ 	c #FF9090",
"] 	c #757575",
"^ 	c #424242",
"/ 	c #414141",
"( 	c #734122",
"_ 	c #AC551F",
": 	c #DE7529",
"< 	c #CC7226",
"[ 	c #99897A",
"} 	c #373737",
"| 	c #343434",
"1 	c #4D3522",
"2 	c #EC862D",
"3 	c #F69131",
"4 	c #F48F30",
"5 	c #E8822B",
"6 	c #926D52",
"7 	c #292929",
"8 	c #242424",
"9 	c #623517",
"0 	c #D16B24",
"a 	c #D77126",
"b 	c #D67025",
"c 	c #CC6622",
"d 	c #876553",
"e 	c #FF2424",
"f 	c #626262",
"g 	c #121212",
"h 	c #3E1E0F",
"i 	c #B54F1B",
"j 	c #BA541C",
"k 	c #B9531C",
"l 	c #A44114",
"m 	c #93817C",
"n 	c #A5A5C6",
"o 	c #444444",
"p 	c #0D0D10",
"q 	c #4B1908",
"r 	c #9D3712",
"s 	c #993311",
"t 	c #692926",
"u 	c #C3CCE5",
"v 	c #3C5CBA",
"w 	c #4A3C78",
"x 	c #7A3F4F",
"y 	c #7A5A7E",
"z 	c #4264CA",
"A 	c #376CB1",
"B 	c #E8EDF8",
"C 	c #4765DF",
"D 	c #6782FD",
"E 	c #527AE6",
"F 	c #81B3F2",
"G 	c #9DD0FF",
"H 	c #537CE2",
"I 	c #6078FC",
"J 	c #4180A5",
"K 	c #8BA2DC",
"L 	c #425BEC",
"M 	c #5C72FD",
"N 	c #6A85FD",
"O 	c #4D77DD",
"P 	c #A8DAFB",
"Q 	c #466AE3",
"R 	c #576BFB",
"S 	c #3068AF",
"T 	c #748FD5",
"U 	c #2B4ED6",
"V 	c #465EF0",
"W 	c #586CFC",
"X 	c #576EF8",
"Y 	c #4070CF",
"Z 	c #475FEE",
"` 	c #3251D5",
" .	c #385B7C",
"..	c #D5DBEA",
"+.	c #556DAD",
"@.	c #3D59AB",
"#.	c #4059AD",
"$.	c #435BAE",
"%.	c #465D9F",
"&.	c #5F709C",
"*.	c #959AA7",
"=.	c #DFDFDF",
"-.	c #F1F1F1",
";.	c #F0F0F0",
">.	c #F4F4F4",
",.	c #FAFAFA",
"      . +                       ",
"  @ # $ % & *         = = =     ",
"- ; > , ' ) ! ~     = {   { =   ",
"] ^ / ( _ : < [     =       =   ",
"} | 1 2 3 4 5 6     = = = = =   ",
"7 8 9 0 a b c d     = = e = =   ",
"f g h i j k l m     = e   e =   ",
"n o p q r s t ~     = = e = =   ",
"  u v w x y z A     = = = = =   ",
"B C D E F G H I J               ",
"K L M N O P Q R S               ",
"T U V W X Y Z `  .              ",
"..+.@.#.$.%.&.*.=.              ",
"    -.;.;.>.,.                  "};
