/* XPM */
static char * ecb_abstract_class_protected_xpm[] = {
"16 14 37 1",
" 	c None",
".	c #444444",
"+	c #FFFFFF",
"@	c #EDEDED",
"#	c #F2F2F2",
"$	c #E7E7E7",
"%	c #747474",
"&	c #F1F1F1",
"*	c #D8D8D8",
"=	c #D2D2D2",
"-	c #8C8C8C",
";	c #CACACA",
">	c #404040",
",	c #E0E0E0",
"'	c #898989",
")	c #E6E6E6",
"!	c #C9C9C9",
"~	c #C5C5C5",
"{	c #D5D5D5",
"]	c #787878",
"^	c #D1D1D1",
"/	c #656565",
"(	c #868686",
"_	c #C8C8C8",
":	c #B6B6B6",
"<	c #ABABAB",
"[	c #D7D7D7",
"}	c #BDBDBD",
"|	c #BBBBBB",
"1	c #AFAFAF",
"2	c #A7A7A7",
"3	c #B0B0B0",
"4	c #AAAAAA",
"5	c #CBCBCB",
"6	c #B8B8B8",
"7	c #B4B4B4",
"8	c #676767",
"         .....  ",
"   .    .+@#@$% ",
"  .&.   .@*.*=- ",
" .&;;.  >$=*,*' ",
".)!~{*.  ..=]'  ",
" .*^*.    .*'   ",
"  .*.  ../.=-   ",
"..(.('._:<.*,-  ",
".[}:|._^<1.,-   ",
".=234.:4:_!]    ",
".567|.41_!*     ",
".=7|7'.}!*/     ",
".('('( /8/      ",
"                "};
