/* XPM */
static char * ecb_variable_protected_static_xpm[] = {
"16 14 61 1",
" 	c None",
".	c #040404",
"+	c #474747",
"@	c #434343",
"#	c #626C7D",
"$	c #FFFFFF",
"%	c #FEE99F",
"&	c #FEF0B7",
"*	c #FEDF8B",
"=	c #8E2E00",
"-	c #6E7683",
";	c #E7EBD8",
">	c #8296BD",
",	c #FDC760",
"'	c #FCBD4F",
")	c #C04C00",
"!	c #2D3544",
"~	c #CBCEBD",
"{	c #5C729A",
"]	c #FDD378",
"^	c #B84900",
"/	c #C2CBDF",
"(	c #8AAAEA",
"_	c #57688C",
":	c #E1E8DD",
"<	c #5C7099",
"[	c #6F8FD3",
"}	c #963400",
"|	c #B2C5EB",
"1	c #6080C9",
"2	c #50648B",
"3	c #D3DAD4",
"4	c #6176A1",
"5	c #7190D4",
"6	c #4F648E",
"7	c #A9BBDF",
"8	c #6789D6",
"9	c #4D6085",
"0	c #DFE5E2",
"a	c #7B9CE2",
"b	c #4B5F87",
"c	c #6685CD",
"d	c #53668D",
"e	c #D4DADA",
"f	c #7998D8",
"g	c #6E8FD9",
"h	c #506287",
"i	c #DFE7E9",
"j	c #83A4E6",
"k	c #6D8CD1",
"l	c #56698F",
"m	c #D5DBE1",
"n	c #809EDC",
"o	c #83A1DE",
"p	c #44536D",
"q	c #DCE2E9",
"r	c #838B9A",
"s	c #DEE3E9",
"t	c #92A8D0",
"u	c #727E95",
"v	c #8690A1",
"                ",
"         .....  ",
"   +@#  .$%&%*= ",
"   -;>  .%,.,') ",
"...!~{...*',],^ ",
"./(_:<([ ..'}^  ",
".|123456  .,^   ",
".7890<ab  .')   ",
".|cde4f6  .,])  ",
".7ghi<jb  .])   ",
".|klm4n6   }    ",
".o6pq<6b        ",
"   rst          ",
"   -uv          "};
