/* XPM */
static char * ecb_abstract_variable_protected_xpm[] = {
"16 14 35 1",
" 	c None",
".	c #444444",
"+	c #FFFFFF",
"@	c #EDEDED",
"#	c #F2F2F2",
"$	c #E7E7E7",
"%	c #747474",
"&	c #D8D8D8",
"*	c #D2D2D2",
"=	c #8C8C8C",
"-	c #E0E0E0",
";	c #898989",
">	c #D7D7D7",
",	c #BDBDBD",
"'	c #B6B6B6",
")	c #A9A9A9",
"!	c #787878",
"~	c #9E9E9E",
"{	c #A6A6A6",
"]	c #A3A3A3",
"^	c #ACACAC",
"/	c #AAAAAA",
"(	c #CBCBCB",
"_	c #A5A5A5",
":	c #ABABAB",
"<	c #B3B3B3",
"[	c #868686",
"}	c #A2A2A2",
"|	c #B0B0B0",
"1	c #A7A7A7",
"2	c #B1B1B1",
"3	c #AFAFAF",
"4	c #B9B9B9",
"5	c #B8B8B8",
"6	c #B4B4B4",
"                ",
"         .....  ",
"        .+@#@$% ",
"        .@&.&*= ",
".........$*&-&; ",
".>,',',) ..*!;  ",
".*~{]^/;  .&;   ",
".(_]:)<[  .*=   ",
".*}/)<|;  .&-=  ",
".(/1234[  .-=   ",
".*1|356;   !    ",
".';[;[;[        ",
"                ",
"                "};
