/* XPM */
static char * ecb_abstract_function_protected_static_xpm[] = {
"16 14 49 1",
" 	c None",
".	c #444444",
"+	c #757575",
"@	c #727272",
"#	c #8F8F8F",
"$	c #FFFFFF",
"%	c #EDEDED",
"&	c #F2F2F2",
"*	c #E7E7E7",
"=	c #747474",
"-	c #EEEEEE",
";	c #AAAAAA",
">	c #D8D8D8",
",	c #D2D2D2",
"'	c #8C8C8C",
")	c #656565",
"!	c #4C4C4C",
"~	c #DCDCDC",
"{	c #989898",
"]	c #E0E0E0",
"^	c #898989",
"/	c #C8C8C8",
"(	c #8A8A8A",
"_	c #ECECEC",
":	c #A1A1A1",
"<	c #676767",
"[	c #787878",
"}	c #DDDDDD",
"|	c #A8A8A8",
"1	c #E2E2E2",
"2	c #A7A7A7",
"3	c #B6B6B6",
"4	c #D1D1D1",
"5	c #A4A4A4",
"6	c #A3A3A3",
"7	c #BDBDBD",
"8	c #A5A5A5",
"9	c #8E8E8E",
"0	c #E3E3E3",
"a	c #ACACAC",
"b	c #C9C9C9",
"c	c #B5B5B5",
"d	c #E6E6E6",
"e	c #AFAFAF",
"f	c #666666",
"g	c #939393",
"h	c #9B9B9B",
"i	c #EAEAEA",
"j	c #B7B7B7",
"                ",
"         .....  ",
"   +@#  .$%&%*= ",
"   @-;  .%>.>,' ",
"  )!~{  .*,>]>^ ",
" ./(_:<  ..,[^  ",
"./}|123<  .>^   ",
".456_5/)  .,'   ",
".7890ab<  .>]'  ",
".8c(-|>)  .]'   ",
" .39de)    [    ",
"  <fdg          ",
"   hij          ",
"   '#6          "};
