/* XPM */
static char * ecb_abstract_function_unknown_static_xpm[] = {
"12 14 41 1",
" 	c None",
".	c #757575",
"+	c #727272",
"@	c #8F8F8F",
"#	c #EEEEEE",
"$	c #AAAAAA",
"%	c #656565",
"&	c #4C4C4C",
"*	c #DCDCDC",
"=	c #989898",
"-	c #444444",
";	c #C8C8C8",
">	c #8A8A8A",
",	c #ECECEC",
"'	c #A1A1A1",
")	c #676767",
"!	c #DDDDDD",
"~	c #A8A8A8",
"{	c #E2E2E2",
"]	c #A7A7A7",
"^	c #B6B6B6",
"/	c #A5A5C6",
"(	c #D1D1D1",
"_	c #A4A4A4",
":	c #A3A3A3",
"<	c #BDBDBD",
"[	c #A5A5A5",
"}	c #8E8E8E",
"|	c #E3E3E3",
"1	c #ACACAC",
"2	c #C9C9C9",
"3	c #B5B5B5",
"4	c #D8D8D8",
"5	c #E6E6E6",
"6	c #AFAFAF",
"7	c #666666",
"8	c #939393",
"9	c #9B9B9B",
"0	c #EAEAEA",
"a	c #B7B7B7",
"b	c #8C8C8C",
"            ",
"            ",
"    .+@     ",
"    +#$     ",
"   %&*=     ",
"  -;>,')    ",
" -;!~{]^)   ",
"/-(_:,_;%   ",
" -<[}|12)   ",
" -[3>#~4%   ",
"  -^}56%    ",
"   )758     ",
"    90a     ",
"    b@:     "};
