/* XPM */
static char * ecb_function_unknown_static_xpm[] = {
"12 14 48 1",
" 	c None",
".	c #474747",
"+	c #434343",
"@	c #626C7D",
"#	c #F6E8C6",
"$	c #C27F58",
"%	c #4F2721",
"&	c #1B0D0B",
"*	c #E0CFB0",
"=	c #B16238",
"-	c #040404",
";	c #E5A684",
">	c #915532",
",	c #F7E4C2",
"'	c #C36D3D",
")	c #532923",
"!	c #E7CBBC",
"~	c #C07B57",
"{	c #EAD6B7",
"]	c #CE7644",
"^	c #D48E67",
"/	c #A5A5C6",
"(	c #E2B7A1",
"_	c #CA713E",
":	c #B67553",
"<	c #F7E2C6",
"[	c #C37344",
"}	c #DF966D",
"|	c #CB733F",
"1	c #995A35",
"2	c #EAD7C1",
"3	c #D07C4D",
"4	c #DEAC90",
"5	c #DB8958",
"6	c #F8E5D1",
"7	c #C6794E",
"8	c #EEC1AA",
"9	c #EBDACB",
"0	c #D18255",
"a	c #4A2A26",
"b	c #ECDBCF",
"c	c #A85D35",
"d	c #887371",
"e	c #EDE0D8",
"f	c #D58F67",
"g	c #73605E",
"h	c #796563",
"i	c #90807F",
"            ",
"            ",
"    .+@     ",
"    +#$     ",
"   %&*=     ",
"  -;>,')    ",
" -;!~{]^)   ",
"/-(_:<[;%   ",
" -}|1234)   ",
" -|5>678%   ",
"  -^190%    ",
"   )abc     ",
"    def     ",
"    ghi     "};
