/* XPM */
static char * ecb_abstract_variable_unknown_static_xpm[] = {
"12 14 44 1",
" 	c None",
".	c #757575",
"+	c #727272",
"@	c #8F8F8F",
"#	c #989898",
"$	c #EDEDED",
"%	c #AFAFAF",
"&	c #444444",
"*	c #676767",
"=	c #D8D8D8",
"-	c #939393",
";	c #D7D7D7",
">	c #BDBDBD",
",	c #8C8C8C",
"'	c #EBEBEB",
")	c #929292",
"!	c #A9A9A9",
"~	c #D2D2D2",
"{	c #9E9E9E",
"]	c #898989",
"^	c #E1E1E1",
"/	c #979797",
"(	c #AAAAAA",
"_	c #A5A5C6",
":	c #CBCBCB",
"<	c #A5A5A5",
"[	c #868686",
"}	c #E9E9E9",
"|	c #B3B3B3",
"1	c #A2A2A2",
"2	c #8B8B8B",
"3	c #E2E2E2",
"4	c #B0B0B0",
"5	c #888888",
"6	c #B9B9B9",
"7	c #A7A7A7",
"8	c #8D8D8D",
"9	c #E3E3E3",
"0	c #B4B4B4",
"a	c #B6B6B6",
"b	c #7D7D7D",
"c	c #E8E8E8",
"d	c #BCBCBC",
"e	c #9D9D9D",
"            ",
"            ",
"    .+@     ",
"    #$%     ",
" &&&*=-&&   ",
" &;>,')>!   ",
" &~{]^/(]   ",
"_&:<[})|[   ",
" &~123/4]   ",
" &:(5')6[   ",
" &~789/0]   ",
" &a]bc)][   ",
"    7}d     ",
"    #e(     "};
