/* XPM */
static char * ecb_parent_public_xpm[] = {
"16 14 103 2",
"  	c None",
". 	c #BCBCBC",
"+ 	c #BABABA",
"@ 	c #C0C0C0",
"# 	c #555555",
"$ 	c #7E7E7E",
"% 	c #7B7B7B",
"& 	c #4F4F4F",
"* 	c #9E9E9E",
"= 	c #005D00",
"- 	c #3F3F3F",
"; 	c #5C5C5C",
"> 	c #818181",
", 	c #7F7E7E",
"' 	c #53403C",
") 	c #27211E",
"! 	c #3CBA00",
"~ 	c #757575",
"{ 	c #424242",
"] 	c #414141",
"^ 	c #734122",
"/ 	c #AC551F",
"( 	c #DE7529",
"_ 	c #CC7226",
": 	c #99897A",
"< 	c #373737",
"[ 	c #343434",
"} 	c #4D3522",
"| 	c #EC862D",
"1 	c #F69131",
"2 	c #F48F30",
"3 	c #E8822B",
"4 	c #926D52",
"5 	c #292929",
"6 	c #242424",
"7 	c #623517",
"8 	c #D16B24",
"9 	c #D77126",
"0 	c #D67025",
"a 	c #CC6622",
"b 	c #876553",
"c 	c #626262",
"d 	c #121212",
"e 	c #3E1E0F",
"f 	c #B54F1B",
"g 	c #BA541C",
"h 	c #B9531C",
"i 	c #A44114",
"j 	c #93817C",
"k 	c #A5A5C6",
"l 	c #444444",
"m 	c #0D0D10",
"n 	c #4B1908",
"o 	c #9D3712",
"p 	c #993311",
"q 	c #692926",
"r 	c #C3CCE5",
"s 	c #3C5CBA",
"t 	c #4A3C78",
"u 	c #7A3F4F",
"v 	c #7A5A7E",
"w 	c #4264CA",
"x 	c #376CB1",
"y 	c #E8EDF8",
"z 	c #4765DF",
"A 	c #6782FD",
"B 	c #527AE6",
"C 	c #81B3F2",
"D 	c #9DD0FF",
"E 	c #537CE2",
"F 	c #6078FC",
"G 	c #4180A5",
"H 	c #8BA2DC",
"I 	c #425BEC",
"J 	c #5C72FD",
"K 	c #6A85FD",
"L 	c #4D77DD",
"M 	c #A8DAFB",
"N 	c #466AE3",
"O 	c #576BFB",
"P 	c #3068AF",
"Q 	c #748FD5",
"R 	c #2B4ED6",
"S 	c #465EF0",
"T 	c #586CFC",
"U 	c #576EF8",
"V 	c #4070CF",
"W 	c #475FEE",
"X 	c #3251D5",
"Y 	c #385B7C",
"Z 	c #D5DBEA",
"` 	c #556DAD",
" .	c #3D59AB",
"..	c #4059AD",
"+.	c #435BAE",
"@.	c #465D9F",
"#.	c #5F709C",
"$.	c #959AA7",
"%.	c #DFDFDF",
"&.	c #F1F1F1",
"*.	c #F0F0F0",
"=.	c #F4F4F4",
"-.	c #FAFAFA",
"      . +                       ",
"  @ # $ % & *     = = =         ",
"  - ; > , ' )   = !   ! =       ",
"~ { ] ^ / ( _ : =       =       ",
"< [ } | 1 2 3 4     = = = = =   ",
"5 6 7 8 9 0 a b     = = ! = =   ",
"c d e f g h i j     = !   ! =   ",
"k l m n o p q       = = ! = =   ",
"  r s t u v w x     = = = = =   ",
"y z A B C D E F G               ",
"H I J K L M N O P               ",
"Q R S T U V W X Y               ",
"Z `  ...+.@.#.$.%.              ",
"    &.*.*.=.-.                  "};
