/* XPM */
static char * ecb_constructor_public_xpm[] = {
"16 14 19 1",
" 	c None",
".	c #005D00",
"+	c #3CBA00",
"@	c #040404",
"#	c #FFE9AD",
"$	c #6B4900",
"%	c #D5AE46",
"&	c #E0B74A",
"*	c #D5AF47",
"=	c #E4BD54",
"-	c #D8B350",
";	c #E8C25C",
">	c #050505",
",	c #E3BD53",
"'	c #DCB857",
")	c #E0BE5F",
"!	c #FFD666",
"~	c #ECC864",
"{	c #E4C267",
"                ",
"        ...     ",
"       .+ +.    ",
"    @  .   .    ",
"   @#$   .....  ",
"  @#%&$  ..+..  ",
" @#*=-;$ .+ +.  ",
">#%,';)!$..+..  ",
" @!'~)!$ .....  ",
"  @!{!$         ",
"   @!$          ",
"    $           ",
"                ",
"                "};
